<?xml version="1.0" encoding="utf-8"?>
<!-- Generator: Adobe Illustrator 27.5.0, SVG Export Plug-In . SVG Version: 6.00 Build 0)  -->
<svg version="1.1" xmlns="http://www.w3.org/2000/svg" xmlns:xlink="http://www.w3.org/1999/xlink" x="0px" y="0px"
	 viewBox="0 0 750 500" style="enable-background:new 0 0 750 500;" xml:space="preserve">
<g id="BACKGROUND">
	<rect y="0" style="opacity:0.5;fill:#4B5057;" width="750" height="500"/>
</g>
<g id="OBJECTS">
	<g>
		<rect x="40.943" y="62.75" style="fill:#FFFFFF;" width="668.844" height="381.959"/>
		<path style="opacity:0.5;fill:#BECBDD;" d="M298.622,157.236c18.762-0.773,38.405,3.962,52.372,16.501
			c20.389,18.305,24.527,48.57,23.608,75.956c-1.668,49.742-24.845,92.681-68.655,117.612
			c-42.451,24.157-96.409,26.323-141.139,6.703c-54.887-24.075-93.563-98.099-48.948-150.678
			c11.893-14.016,29.728-21.288,46.966-27.669c22.781-8.433,45.807-16.323,69.074-23.314c21.15-6.355,44.06-14.093,66.364-15.096
			C298.384,157.246,298.503,157.241,298.622,157.236z"/>
		<path style="fill:#D3D3D4;" d="M339.506,62.766h47.309v0.086h322.971V51.832c0-1.403-1.138-2.541-2.541-2.541H42.755
			c-1.403,0-2.541,1.138-2.541,2.541v10.589h299.292V62.766z"/>
		<g>
			<rect x="633.864" y="75.838" style="opacity:0.5;fill:#BECBDD;" width="43.435" height="21.065"/>
			
				<text transform="matrix(0.9997 0 0 1 73.7746 90.9527)" style="fill:#262547; font-family:'OpenSans-Extrabold'; font-size:11.5294px;">logo</text>
			<text transform="matrix(0.9997 0 0 1 458.3 87.9772)" style="fill:#050504; font-family:'OpenSans'; font-size:5px;">home</text>
			<text transform="matrix(0.9997 0 0 1 575.1408 87.9772)" style="fill:#050504; font-family:'OpenSans'; font-size:5px;">contact us</text>
			<text transform="matrix(0.9997 0 0 1 642.3001 87.8348)" style="fill:#050504; font-family:'OpenSans'; font-size:6px;">shoping</text>
			<text transform="matrix(0.9997 0 0 1 512.0764 87.9772)" style="fill:#050504; font-family:'OpenSans'; font-size:5px;">products</text>
			<g>
				<path style="opacity:0.51;fill:none;stroke:#818181;stroke-width:0.5;stroke-miterlimit:10;" d="M356.703,94.008H218.374V78.851
					h138.328c1.218,0,2.206,0.988,2.206,2.206v10.746C358.908,93.021,357.921,94.008,356.703,94.008z"/>
				<path style="fill:#D3D3D4;" d="M219.281,94.267h-22.85c-0.758,0-1.372-0.614-1.372-1.372V79.964
					c0-0.757,0.614-1.371,1.372-1.371h22.85V94.267z"/>
				<g>
					<g>
						<path style="fill:none;stroke:#272546;stroke-miterlimit:10;" d="M208.661,85.289c0,1.432-1.161,2.593-2.593,2.593
							c-1.432,0-2.593-1.161-2.593-2.593s1.161-2.593,2.593-2.593C207.501,82.697,208.661,83.857,208.661,85.289z"/>
					</g>
					<line style="fill:none;stroke:#272546;stroke-miterlimit:10;" x1="207.918" y1="87.105" x2="210.53" y2="89.717"/>
				</g>
			</g>
		</g>
		<g>
			<text transform="matrix(1 0 0 1 444.5849 308.3474)" style="opacity:0.5;"><tspan x="0" y="0" style="fill:#272546; font-family:'OpenSans'; font-size:9.497px;">Lorem ipsum dolor sit amet, consectetuer  </tspan><tspan x="0" y="11.396" style="fill:#272546; font-family:'OpenSans'; font-size:9.497px;">adipiscing elit, sed diam nonummy nibh  </tspan><tspan x="0" y="22.793" style="fill:#272546; font-family:'OpenSans'; font-size:9.497px;">euismod tincidunt ut laoreet dolore</tspan></text>
			<g>
				<text transform="matrix(1 0 0 1 444.5917 229.2663)"><tspan x="0" y="0" style="fill:#2C2E5C; font-family:'AbrilFatface-Regular'; font-size:43.6945px;">Online</tspan><tspan x="0" y="39.811" style="fill:#2C2E5C; font-family:'AbrilFatface-Regular'; font-size:43.6945px;">shopping</tspan></text>
				<rect x="447.851" y="353.442" style="opacity:0.5;fill:#BECBDD;" width="93.237" height="26.676"/>
				<g>
					<text transform="matrix(1 0 0 1 461.9594 369.8376)" style="fill:#2C2E5C; font-family:'OpenSans'; font-size:9.497px;">Shop now</text>
					<g>
						<g>
							
								<line style="fill:none;stroke:#41458C;stroke-width:0.5;stroke-miterlimit:10;" x1="525.985" y1="367.063" x2="513.876" y2="367.063"/>
							<g>
								<polygon style="fill:#41458C;" points="524.328,365.018 523.987,365.384 525.793,367.063 523.987,368.741 524.328,369.108 
									526.528,367.063 								"/>
							</g>
						</g>
					</g>
				</g>
			</g>
			
				<line style="fill:none;stroke:#050504;stroke-width:0.75;stroke-miterlimit:10;" x1="444.583" y1="285.437" x2="551.168" y2="285.437"/>
		</g>
		<g>
			<g>
				
					<line style="fill:none;stroke:#41458C;stroke-width:0.5;stroke-miterlimit:10;" x1="696.817" y1="259.553" x2="684.708" y2="259.553"/>
				<g>
					<polygon style="fill:#41458C;" points="695.161,257.508 694.82,257.874 696.625,259.552 694.82,261.231 695.161,261.597 
						697.36,259.552 					"/>
				</g>
			</g>
		</g>
		<g>
			<circle style="fill:#C44848;" cx="54.687" cy="55.785" r="1.997"/>
			<circle style="fill:#C4A12F;" cx="62.745" cy="55.785" r="1.997"/>
			<circle style="fill:#47C2DD;" cx="70.804" cy="55.785" r="1.997"/>
		</g>
		<g>
			<path style="fill:none;stroke:#2C2E5C;stroke-width:0.5;stroke-miterlimit:10;" d="M102.933,286.23
				c1.005-0.946,33.148-5.969,33.148-5.969l-6.027,28.474"/>
			<polyline style="fill:none;stroke:#2C2E5C;stroke-width:0.5;stroke-miterlimit:10;" points="119.923,304.744 136.081,280.261 
				148.805,305.332 			"/>
			<polyline style="fill:none;stroke:#2C2E5C;stroke-width:0.5;stroke-miterlimit:10;" points="110.299,263.185 136.081,280.261 
				113.898,291.88 			"/>
			
				<line style="fill:none;stroke:#222221;stroke-width:0.5;stroke-miterlimit:10;" x1="318.644" y1="380.118" x2="375.34" y2="380.118"/>
			
				<line style="fill:none;stroke:#222221;stroke-width:0.5;stroke-miterlimit:10;" x1="303.848" y1="361.828" x2="346.992" y2="361.828"/>
			
				<line style="fill:none;stroke:#222221;stroke-width:0.5;stroke-miterlimit:10;" x1="153.505" y1="365.559" x2="210.667" y2="365.559"/>
			
				<line style="fill:none;stroke:#222221;stroke-width:0.5;stroke-miterlimit:10;" x1="354.274" y1="353.053" x2="389.999" y2="353.053"/>
			
				<line style="fill:none;stroke:#222221;stroke-width:0.5;stroke-miterlimit:10;" x1="118.396" y1="374.991" x2="154.121" y2="374.991"/>
			
				<line style="fill:none;stroke:#222221;stroke-width:0.5;stroke-miterlimit:10;" x1="93.917" y1="349.217" x2="151.079" y2="349.217"/>
			<g>
				<g>
					<path style="fill:#2C2E5C;" d="M289.083,393.708H177.135c-2.184,0-2.678-1.091-1.104-2.436l53.796-43.417l114.047-1.713l0,0
						c0,1.091-0.462,2.131-1.271,2.863l-46.716,42.267C294.313,392.618,291.267,393.708,289.083,393.708z"/>
					<path style="fill:#DDDDDD;" d="M289.083,391.995H177.135c-2.184,0-2.678-1.091-1.104-2.436l53.796-43.417h114.047
						l-47.987,43.417C294.313,390.904,291.267,391.995,289.083,391.995z"/>
					<path style="opacity:0.5;fill:#A1A8A7;" d="M299.44,376.971h-97.167c-1.538,0-1.886-0.768-0.777-1.715l26.184-22.378
						c1.108-0.947,3.253-1.715,4.791-1.715h97.167c1.538,0,1.886,0.768,0.778,1.715l-26.184,22.378
						C303.123,376.203,300.978,376.971,299.44,376.971z"/>
					<g>
						<g>
							<path style="fill:#2C2E5C;" d="M236.795,353.053h-5.065c-0.482,0-0.591-0.241-0.244-0.538l3.229-2.76
								c0.348-0.297,1.02-0.538,1.503-0.538h5.065c0.482,0,0.591,0.241,0.244,0.538l-3.229,2.76
								C237.95,352.812,237.278,353.053,236.795,353.053z"/>
							<path style="fill:#2C2E5C;" d="M243.91,353.053h-4.481c-0.482,0-0.591-0.241-0.244-0.538l3.229-2.76
								c0.348-0.297,1.02-0.538,1.503-0.538h4.481c0.482,0,0.591,0.241,0.244,0.538l-3.229,2.76
								C245.065,352.812,244.392,353.053,243.91,353.053z"/>
							<path style="fill:#2C2E5C;" d="M251.024,353.053h-4.481c-0.482,0-0.591-0.241-0.244-0.538l3.229-2.76
								c0.348-0.297,1.02-0.538,1.502-0.538h4.481c0.482,0,0.591,0.241,0.244,0.538l-3.23,2.76
								C252.179,352.812,251.506,353.053,251.024,353.053z"/>
							<path style="fill:#2C2E5C;" d="M258.138,353.053h-4.481c-0.482,0-0.591-0.241-0.244-0.538l3.23-2.76
								c0.348-0.297,1.02-0.538,1.503-0.538h4.48c0.482,0,0.591,0.241,0.244,0.538l-3.23,2.76
								C259.293,352.812,258.621,353.053,258.138,353.053z"/>
							<path style="fill:#2C2E5C;" d="M265.253,353.053h-4.481c-0.482,0-0.591-0.241-0.244-0.538l3.229-2.76
								c0.348-0.297,1.02-0.538,1.502-0.538h4.481c0.482,0,0.591,0.241,0.244,0.538l-3.229,2.76
								C266.407,352.812,265.735,353.053,265.253,353.053z"/>
							<path style="fill:#2C2E5C;" d="M272.367,353.053h-4.481c-0.482,0-0.591-0.241-0.244-0.538l3.229-2.76
								c0.348-0.297,1.02-0.538,1.503-0.538h4.481c0.482,0,0.591,0.241,0.244,0.538l-3.229,2.76
								C273.522,352.812,272.849,353.053,272.367,353.053z"/>
							<path style="fill:#2C2E5C;" d="M279.481,353.053H275c-0.482,0-0.591-0.241-0.244-0.538l3.229-2.76
								c0.348-0.297,1.02-0.538,1.502-0.538h4.481c0.482,0,0.591,0.241,0.244,0.538l-3.229,2.76
								C280.636,352.812,279.963,353.053,279.481,353.053z"/>
							<path style="fill:#2C2E5C;" d="M286.595,353.053h-4.481c-0.482,0-0.591-0.241-0.244-0.538l3.229-2.76
								c0.348-0.297,1.02-0.538,1.503-0.538h4.481c0.482,0,0.591,0.241,0.244,0.538l-3.229,2.76
								C287.75,352.812,287.078,353.053,286.595,353.053z"/>
							<path style="fill:#2C2E5C;" d="M293.71,353.053h-4.48c-0.482,0-0.591-0.241-0.244-0.538l3.229-2.76
								c0.348-0.297,1.02-0.538,1.503-0.538h4.48c0.482,0,0.591,0.241,0.244,0.538l-3.229,2.76
								C294.865,352.812,294.192,353.053,293.71,353.053z"/>
							<path style="fill:#2C2E5C;" d="M300.824,353.053h-4.481c-0.482,0-0.591-0.241-0.244-0.538l3.23-2.76
								c0.348-0.297,1.02-0.538,1.502-0.538h4.481c0.482,0,0.591,0.241,0.244,0.538l-3.229,2.76
								C301.979,352.812,301.306,353.053,300.824,353.053z"/>
							<path style="fill:#2C2E5C;" d="M307.938,353.053h-4.481c-0.482,0-0.591-0.241-0.244-0.538l3.229-2.76
								c0.348-0.297,1.02-0.538,1.503-0.538h4.481c0.482,0,0.591,0.241,0.244,0.538l-3.229,2.76
								C309.093,352.812,308.42,353.053,307.938,353.053z"/>
							<path style="fill:#2C2E5C;" d="M315.052,353.053h-4.481c-0.482,0-0.591-0.241-0.244-0.538l3.229-2.76
								c0.348-0.297,1.02-0.538,1.503-0.538h4.481c0.482,0,0.591,0.241,0.244,0.538l-3.229,2.76
								C316.207,352.812,315.535,353.053,315.052,353.053z"/>
							<path style="fill:#2C2E5C;" d="M325.619,353.053h-8.236c-0.482,0-0.591-0.241-0.244-0.538l3.229-2.76
								c0.348-0.297,1.02-0.538,1.503-0.538h8.236c0.482,0,0.591,0.241,0.244,0.538l-3.229,2.76
								C326.773,352.812,326.101,353.053,325.619,353.053z"/>
						</g>
						<g>
							<path style="fill:#2C2E5C;" d="M235.219,357.44h-8.622c-0.482,0-0.591-0.241-0.244-0.538l3.229-2.76
								c0.348-0.297,1.02-0.538,1.503-0.538h8.622c0.482,0,0.591,0.241,0.244,0.538l-3.229,2.76
								C236.373,357.199,235.701,357.44,235.219,357.44z"/>
							<path style="fill:#2C2E5C;" d="M242.333,357.44h-4.481c-0.482,0-0.591-0.241-0.244-0.538l3.229-2.76
								c0.348-0.297,1.02-0.538,1.503-0.538h4.481c0.482,0,0.591,0.241,0.244,0.538l-3.229,2.76
								C243.488,357.199,242.815,357.44,242.333,357.44z"/>
							<path style="fill:#2C2E5C;" d="M249.447,357.44h-4.481c-0.482,0-0.591-0.241-0.244-0.538l3.229-2.76
								c0.348-0.297,1.02-0.538,1.503-0.538h4.481c0.482,0,0.591,0.241,0.244,0.538l-3.229,2.76
								C250.602,357.199,249.929,357.44,249.447,357.44z"/>
							<path style="fill:#2C2E5C;" d="M256.561,357.44h-4.481c-0.482,0-0.591-0.241-0.244-0.538l3.229-2.76
								c0.348-0.297,1.02-0.538,1.503-0.538h4.481c0.482,0,0.591,0.241,0.244,0.538l-3.229,2.76
								C257.716,357.199,257.044,357.44,256.561,357.44z"/>
							<path style="fill:#2C2E5C;" d="M263.676,357.44h-4.481c-0.482,0-0.591-0.241-0.244-0.538l3.229-2.76
								c0.348-0.297,1.02-0.538,1.503-0.538h4.481c0.482,0,0.591,0.241,0.244,0.538l-3.229,2.76
								C264.831,357.199,264.158,357.44,263.676,357.44z"/>
							<path style="fill:#2C2E5C;" d="M270.79,357.44h-4.48c-0.482,0-0.591-0.241-0.244-0.538l3.23-2.76
								c0.347-0.297,1.02-0.538,1.502-0.538h4.481c0.482,0,0.591,0.241,0.244,0.538l-3.23,2.76
								C271.945,357.199,271.272,357.44,270.79,357.44z"/>
							<path style="fill:#2C2E5C;" d="M277.904,357.44h-4.481c-0.482,0-0.591-0.241-0.244-0.538l3.229-2.76
								c0.348-0.297,1.02-0.538,1.503-0.538h4.481c0.482,0,0.591,0.241,0.244,0.538l-3.229,2.76
								C279.059,357.199,278.386,357.44,277.904,357.44z"/>
							<path style="fill:#2C2E5C;" d="M285.018,357.44h-4.481c-0.482,0-0.591-0.241-0.244-0.538l3.229-2.76
								c0.348-0.297,1.02-0.538,1.503-0.538h4.481c0.482,0,0.591,0.241,0.244,0.538l-3.229,2.76
								C286.173,357.199,285.501,357.44,285.018,357.44z"/>
							<path style="fill:#2C2E5C;" d="M292.133,357.44h-4.481c-0.482,0-0.591-0.241-0.244-0.538l3.229-2.76
								c0.348-0.297,1.02-0.538,1.503-0.538h4.481c0.482,0,0.591,0.241,0.244,0.538l-3.229,2.76
								C293.288,357.199,292.615,357.44,292.133,357.44z"/>
							<path style="fill:#2C2E5C;" d="M299.247,357.44h-4.481c-0.482,0-0.591-0.241-0.244-0.538l3.229-2.76
								c0.348-0.297,1.02-0.538,1.503-0.538h4.481c0.482,0,0.591,0.241,0.244,0.538l-3.229,2.76
								C300.402,357.199,299.729,357.44,299.247,357.44z"/>
							<path style="fill:#2C2E5C;" d="M306.361,357.44h-4.48c-0.482,0-0.591-0.241-0.244-0.538l3.229-2.76
								c0.348-0.297,1.02-0.538,1.503-0.538h4.48c0.482,0,0.591,0.241,0.244,0.538l-3.229,2.76
								C307.516,357.199,306.844,357.44,306.361,357.44z"/>
							<path style="fill:#2C2E5C;" d="M313.476,357.44h-4.481c-0.482,0-0.591-0.241-0.244-0.538l3.229-2.76
								c0.348-0.297,1.02-0.538,1.503-0.538h4.481c0.482,0,0.591,0.241,0.244,0.538l-3.229,2.76
								C314.63,357.199,313.958,357.44,313.476,357.44z"/>
						</g>
						<g>
							<path style="fill:#2C2E5C;" d="M224.951,366.216h-8.622c-0.482,0-0.591-0.241-0.244-0.538l3.23-2.76
								c0.348-0.297,1.02-0.538,1.502-0.538h8.622c0.482,0,0.591,0.241,0.244,0.538l-3.229,2.76
								C226.105,365.975,225.433,366.216,224.951,366.216z"/>
							<path style="fill:#2C2E5C;" d="M232.065,366.216h-4.481c-0.482,0-0.591-0.241-0.244-0.538l3.229-2.76
								c0.348-0.297,1.02-0.538,1.503-0.538h4.481c0.482,0,0.591,0.241,0.244,0.538l-3.229,2.76
								C233.22,365.975,232.547,366.216,232.065,366.216z"/>
							<path style="fill:#2C2E5C;" d="M239.179,366.216h-4.481c-0.482,0-0.591-0.241-0.244-0.538l3.229-2.76
								c0.348-0.297,1.02-0.538,1.503-0.538h4.481c0.482,0,0.591,0.241,0.244,0.538l-3.229,2.76
								C240.334,365.975,239.661,366.216,239.179,366.216z"/>
							<path style="fill:#2C2E5C;" d="M246.293,366.216h-4.481c-0.482,0-0.591-0.241-0.244-0.538l3.229-2.76
								c0.348-0.297,1.02-0.538,1.503-0.538h4.48c0.482,0,0.591,0.241,0.244,0.538l-3.229,2.76
								C247.448,365.975,246.776,366.216,246.293,366.216z"/>
							<path style="fill:#2C2E5C;" d="M253.408,366.216h-4.48c-0.482,0-0.591-0.241-0.244-0.538l3.23-2.76
								c0.347-0.297,1.02-0.538,1.502-0.538h4.481c0.482,0,0.591,0.241,0.244,0.538l-3.229,2.76
								C254.563,365.975,253.89,366.216,253.408,366.216z"/>
							<path style="fill:#2C2E5C;" d="M260.522,366.216h-4.481c-0.482,0-0.591-0.241-0.244-0.538l3.229-2.76
								c0.348-0.297,1.02-0.538,1.503-0.538h4.481c0.482,0,0.591,0.241,0.244,0.538l-3.229,2.76
								C261.677,365.975,261.004,366.216,260.522,366.216z"/>
							<path style="fill:#2C2E5C;" d="M267.636,366.216h-4.481c-0.482,0-0.591-0.241-0.244-0.538l3.229-2.76
								c0.348-0.297,1.02-0.538,1.503-0.538h4.481c0.482,0,0.591,0.241,0.244,0.538l-3.229,2.76
								C268.791,365.975,268.118,366.216,267.636,366.216z"/>
							<path style="fill:#2C2E5C;" d="M274.75,366.216h-4.481c-0.482,0-0.591-0.241-0.244-0.538l3.229-2.76
								c0.348-0.297,1.02-0.538,1.503-0.538h4.481c0.482,0,0.591,0.241,0.244,0.538l-3.229,2.76
								C275.905,365.975,275.233,366.216,274.75,366.216z"/>
							<path style="fill:#2C2E5C;" d="M281.865,366.216h-4.481c-0.482,0-0.591-0.241-0.244-0.538l3.229-2.76
								c0.348-0.297,1.02-0.538,1.503-0.538h4.481c0.482,0,0.591,0.241,0.244,0.538l-3.23,2.76
								C283.02,365.975,282.347,366.216,281.865,366.216z"/>
							<path style="fill:#2C2E5C;" d="M288.979,366.216h-4.48c-0.482,0-0.591-0.241-0.244-0.538l3.229-2.76
								c0.348-0.297,1.02-0.538,1.503-0.538h4.48c0.482,0,0.591,0.241,0.244,0.538l-3.229,2.76
								C290.134,365.975,289.461,366.216,288.979,366.216z"/>
							<path style="fill:#2C2E5C;" d="M296.093,366.216h-4.481c-0.482,0-0.591-0.241-0.244-0.538l3.229-2.76
								c0.348-0.297,1.02-0.538,1.503-0.538h4.481c0.482,0,0.591,0.241,0.244,0.538l-3.229,2.76
								C297.248,365.975,296.576,366.216,296.093,366.216z"/>
							<path style="fill:#2C2E5C;" d="M303.208,366.216h-4.481c-0.482,0-0.591-0.241-0.244-0.538l3.229-2.76
								c0.348-0.297,1.02-0.538,1.503-0.538h4.481c0.482,0,0.591,0.241,0.244,0.538l-3.229,2.76
								C304.362,365.975,303.69,366.216,303.208,366.216z"/>
							<path style="fill:#2C2E5C;" d="M310.216,366.216h-4.481c-0.482,0-0.591-0.241-0.244-0.538l6.119-5.23
								c0.348-0.297,1.02-0.538,1.503-0.538h4.481c0.482,0,0.591,0.241,0.244,0.538l-6.119,5.23
								C311.371,365.975,310.699,366.216,310.216,366.216z"/>
							<path style="fill:#2C2E5C;" d="M320.484,357.44h-4.48c-0.482,0-0.591-0.241-0.244-0.538l3.229-2.76
								c0.348-0.297,1.02-0.538,1.503-0.538h4.48c0.482,0,0.591,0.241,0.244,0.538l-3.229,2.76
								C321.639,357.199,320.967,357.44,320.484,357.44z"/>
						</g>
						<g>
							<path style="fill:#2C2E5C;" d="M225.943,361.828h-4.48c-0.482,0-0.591-0.241-0.244-0.538l3.23-2.76
								c0.347-0.297,1.02-0.538,1.502-0.538h4.48c0.482,0,0.591,0.241,0.244,0.538l-3.23,2.76
								C227.098,361.587,226.425,361.828,225.943,361.828z"/>
							<path style="fill:#2C2E5C;" d="M233.057,361.828h-4.481c-0.482,0-0.591-0.241-0.244-0.538l3.229-2.76
								c0.348-0.297,1.02-0.538,1.503-0.538h4.481c0.482,0,0.591,0.241,0.244,0.538l-3.229,2.76
								C234.212,361.587,233.539,361.828,233.057,361.828z"/>
							<path style="fill:#2C2E5C;" d="M240.171,361.828h-4.481c-0.482,0-0.591-0.241-0.244-0.538l3.229-2.76
								c0.348-0.297,1.02-0.538,1.502-0.538h4.481c0.482,0,0.591,0.241,0.244,0.538l-3.229,2.76
								C241.326,361.587,240.654,361.828,240.171,361.828z"/>
							<path style="fill:#2C2E5C;" d="M247.286,361.828h-4.481c-0.482,0-0.591-0.241-0.244-0.538l3.229-2.76
								c0.348-0.297,1.02-0.538,1.503-0.538h4.481c0.482,0,0.591,0.241,0.244,0.538l-3.229,2.76
								C248.441,361.587,247.768,361.828,247.286,361.828z"/>
							<path style="fill:#2C2E5C;" d="M254.4,361.828h-4.481c-0.482,0-0.591-0.241-0.244-0.538l3.229-2.76
								c0.348-0.297,1.02-0.538,1.503-0.538h4.481c0.482,0,0.591,0.241,0.244,0.538l-3.229,2.76
								C255.555,361.587,254.882,361.828,254.4,361.828z"/>
							<path style="fill:#2C2E5C;" d="M261.514,361.828h-4.48c-0.482,0-0.591-0.241-0.244-0.538l3.229-2.76
								c0.348-0.297,1.02-0.538,1.503-0.538h4.48c0.482,0,0.591,0.241,0.244,0.538l-3.229,2.76
								C262.669,361.587,261.996,361.828,261.514,361.828z"/>
							<path style="fill:#2C2E5C;" d="M268.629,361.828h-4.481c-0.482,0-0.591-0.241-0.244-0.538l3.229-2.76
								c0.348-0.297,1.02-0.538,1.502-0.538h4.481c0.482,0,0.591,0.241,0.244,0.538l-3.229,2.76
								C269.783,361.587,269.111,361.828,268.629,361.828z"/>
							<path style="fill:#2C2E5C;" d="M275.743,361.828h-4.481c-0.482,0-0.591-0.241-0.244-0.538l3.229-2.76
								c0.348-0.297,1.02-0.538,1.503-0.538h4.481c0.482,0,0.591,0.241,0.244,0.538l-3.229,2.76
								C276.898,361.587,276.225,361.828,275.743,361.828z"/>
							<path style="fill:#2C2E5C;" d="M282.857,361.828h-4.481c-0.482,0-0.591-0.241-0.244-0.538l3.229-2.76
								c0.348-0.297,1.02-0.538,1.503-0.538h4.481c0.482,0,0.591,0.241,0.244,0.538l-3.229,2.76
								C284.012,361.587,283.339,361.828,282.857,361.828z"/>
							<path style="fill:#2C2E5C;" d="M289.971,361.828h-4.481c-0.482,0-0.591-0.241-0.244-0.538l3.229-2.76
								c0.348-0.297,1.02-0.538,1.503-0.538h4.481c0.482,0,0.591,0.241,0.244,0.538l-3.229,2.76
								C291.126,361.587,290.454,361.828,289.971,361.828z"/>
							<path style="fill:#2C2E5C;" d="M297.086,361.828h-4.48c-0.482,0-0.591-0.241-0.244-0.538l3.229-2.76
								c0.348-0.297,1.02-0.538,1.503-0.538h4.48c0.482,0,0.591,0.241,0.244,0.538l-3.229,2.76
								C298.241,361.587,297.568,361.828,297.086,361.828z"/>
							<path style="fill:#2C2E5C;" d="M304.2,361.828h-4.481c-0.482,0-0.591-0.241-0.244-0.538l3.229-2.76
								c0.348-0.297,1.02-0.538,1.502-0.538h4.481c0.482,0,0.591,0.241,0.244,0.538l-3.229,2.76
								C305.355,361.587,304.682,361.828,304.2,361.828z"/>
							<path style="fill:#2C2E5C;" d="M315.35,361.828h-8.376c-0.482,0-0.591-0.241-0.244-0.538l3.229-2.76
								c0.348-0.297,1.02-0.538,1.502-0.538h8.376c0.482,0,0.591,0.241,0.244,0.538l-3.229,2.76
								C316.505,361.587,315.833,361.828,315.35,361.828z"/>
						</g>
						<g>
							<path style="fill:#2C2E5C;" d="M217.147,370.604h-5.953c-0.482,0-0.591-0.241-0.244-0.538l3.229-2.76
								c0.348-0.297,1.02-0.538,1.503-0.538h5.952c0.482,0,0.591,0.241,0.244,0.538l-3.229,2.76
								C218.302,370.363,217.629,370.604,217.147,370.604z"/>
							<path style="fill:#2C2E5C;" d="M222.789,370.604h-2.881c-0.482,0-0.591-0.241-0.244-0.538l3.229-2.76
								c0.348-0.297,1.02-0.538,1.502-0.538h2.881c0.482,0,0.591,0.241,0.244,0.538l-3.229,2.76
								C223.944,370.363,223.271,370.604,222.789,370.604z"/>
							<path style="fill:#2C2E5C;" d="M229.903,370.604h-4.481c-0.482,0-0.591-0.241-0.244-0.538l3.229-2.76
								c0.348-0.297,1.02-0.538,1.503-0.538h4.481c0.482,0,0.591,0.241,0.244,0.538l-3.229,2.76
								C231.058,370.363,230.386,370.604,229.903,370.604z"/>
							<path style="fill:#2C2E5C;" d="M237.018,370.604h-4.481c-0.482,0-0.591-0.241-0.244-0.538l3.229-2.76
								c0.348-0.297,1.02-0.538,1.503-0.538h4.481c0.482,0,0.591,0.241,0.244,0.538l-3.23,2.76
								C238.173,370.363,237.5,370.604,237.018,370.604z"/>
							<path style="fill:#2C2E5C;" d="M244.132,370.604h-4.48c-0.482,0-0.591-0.241-0.244-0.538l3.229-2.76
								c0.348-0.297,1.02-0.538,1.503-0.538h4.48c0.482,0,0.591,0.241,0.244,0.538l-3.23,2.76
								C245.287,370.363,244.614,370.604,244.132,370.604z"/>
							<path style="fill:#2C2E5C;" d="M251.246,370.604h-4.481c-0.482,0-0.591-0.241-0.244-0.538l3.229-2.76
								c0.348-0.297,1.02-0.538,1.502-0.538h4.481c0.482,0,0.591,0.241,0.244,0.538l-3.229,2.76
								C252.401,370.363,251.729,370.604,251.246,370.604z"/>
							<path style="fill:#2C2E5C;" d="M258.361,370.604h-4.481c-0.482,0-0.591-0.241-0.244-0.538l3.229-2.76
								c0.348-0.297,1.02-0.538,1.503-0.538h4.481c0.482,0,0.591,0.241,0.244,0.538l-3.229,2.76
								C259.515,370.363,258.843,370.604,258.361,370.604z"/>
							<path style="fill:#2C2E5C;" d="M265.475,370.604h-4.481c-0.482,0-0.591-0.241-0.244-0.538l3.229-2.76
								c0.348-0.297,1.02-0.538,1.503-0.538h4.481c0.482,0,0.591,0.241,0.244,0.538l-3.229,2.76
								C266.63,370.363,265.957,370.604,265.475,370.604z"/>
							<path style="fill:#2C2E5C;" d="M272.589,370.604h-4.481c-0.482,0-0.591-0.241-0.244-0.538l3.229-2.76
								c0.348-0.297,1.02-0.538,1.503-0.538h4.481c0.482,0,0.591,0.241,0.244,0.538l-3.229,2.76
								C273.744,370.363,273.071,370.604,272.589,370.604z"/>
							<path style="fill:#2C2E5C;" d="M279.703,370.604h-4.48c-0.482,0-0.591-0.241-0.244-0.538l3.229-2.76
								c0.348-0.297,1.02-0.538,1.503-0.538h4.48c0.482,0,0.591,0.241,0.244,0.538l-3.229,2.76
								C280.858,370.363,280.186,370.604,279.703,370.604z"/>
							<path style="fill:#2C2E5C;" d="M286.818,370.604h-4.481c-0.482,0-0.591-0.241-0.244-0.538l3.229-2.76
								c0.348-0.297,1.02-0.538,1.502-0.538h4.481c0.482,0,0.591,0.241,0.244,0.538l-3.229,2.76
								C287.973,370.363,287.3,370.604,286.818,370.604z"/>
							<path style="fill:#2C2E5C;" d="M305.082,370.604h-15.631c-0.482,0-0.591-0.241-0.244-0.538l3.229-2.76
								c0.348-0.297,1.02-0.538,1.503-0.538h15.631c0.482,0,0.591,0.241,0.244,0.538l-3.229,2.76
								C306.237,370.363,305.565,370.604,305.082,370.604z"/>
						</g>
						<g>
							<path style="fill:#2C2E5C;" d="M210.541,374.991h-4.481c-0.482,0-0.591-0.241-0.244-0.538l3.229-2.76
								c0.348-0.297,1.02-0.538,1.502-0.538h4.481c0.482,0,0.591,0.241,0.244,0.538l-3.229,2.76
								C211.696,374.751,211.023,374.991,210.541,374.991z"/>
							<path style="fill:#2C2E5C;" d="M217.655,374.991h-4.481c-0.482,0-0.591-0.241-0.244-0.538l3.229-2.76
								c0.348-0.297,1.02-0.538,1.503-0.538h4.481c0.482,0,0.591,0.241,0.244,0.538l-3.229,2.76
								C218.81,374.751,218.137,374.991,217.655,374.991z"/>
							<path style="fill:#2C2E5C;" d="M224.769,374.991h-4.481c-0.482,0-0.591-0.241-0.244-0.538l3.229-2.76
								c0.348-0.297,1.02-0.538,1.503-0.538h4.481c0.482,0,0.591,0.241,0.244,0.538l-3.229,2.76
								C225.924,374.751,225.252,374.991,224.769,374.991z"/>
							<path style="fill:#2C2E5C;" d="M231.884,374.991h-4.481c-0.482,0-0.591-0.241-0.244-0.538l3.23-2.76
								c0.348-0.297,1.02-0.538,1.503-0.538h4.48c0.482,0,0.591,0.241,0.244,0.538l-3.23,2.76
								C233.039,374.751,232.366,374.991,231.884,374.991z"/>
							<path style="fill:#2C2E5C;" d="M288.741,374.991h-4.481c-0.482,0-0.591-0.241-0.244-0.538l3.229-2.76
								c0.348-0.297,1.02-0.538,1.503-0.538h4.481c0.482,0,0.591,0.241,0.244,0.538l-3.229,2.76
								C289.896,374.751,289.223,374.991,288.741,374.991z"/>
							<path style="fill:#2C2E5C;" d="M267.455,374.991h-32.938c-0.482,0-0.591-0.241-0.244-0.538l3.23-2.76
								c0.347-0.297,1.02-0.538,1.502-0.538h32.938c0.482,0,0.591,0.241,0.244,0.538l-3.23,2.76
								C268.61,374.751,267.937,374.991,267.455,374.991z"/>
							<path style="fill:#2C2E5C;" d="M274.569,374.991h-4.48c-0.482,0-0.591-0.241-0.244-0.538l3.229-2.76
								c0.348-0.297,1.02-0.538,1.503-0.538h4.48c0.482,0,0.591,0.241,0.244,0.538l-3.229,2.76
								C275.724,374.751,275.052,374.991,274.569,374.991z"/>
							<path style="fill:#2C2E5C;" d="M284.289,372.814h-4.481c-0.482,0-0.591-0.241-0.244-0.538l0.682-0.582
								c0.348-0.297,1.02-0.538,1.503-0.538h4.48c0.482,0,0.591,0.241,0.244,0.538l-0.682,0.582
								C285.443,372.573,284.771,372.814,284.289,372.814z"/>
							<path style="fill:#2C2E5C;" d="M281.693,375.033h-4.481c-0.482,0-0.591-0.241-0.244-0.538l0.985-0.842
								c0.347-0.297,1.02-0.538,1.502-0.538h4.481c0.482,0,0.591,0.241,0.244,0.538l-0.985,0.842
								C282.848,374.792,282.175,375.033,281.693,375.033z"/>
							<path style="fill:#2C2E5C;" d="M299.948,374.991h-8.376c-0.482,0-0.591-0.241-0.244-0.538l3.229-2.76
								c0.348-0.297,1.02-0.538,1.502-0.538h8.376c0.482,0,0.591,0.241,0.244,0.538l-3.229,2.76
								C301.103,374.751,300.431,374.991,299.948,374.991z"/>
						</g>
					</g>
					<path style="fill:#9C9C9C;" d="M254.469,388.276h-35.982c-1.275,0-1.564-0.637-0.645-1.422l9.898-8.46
						c0.919-0.785,2.698-1.422,3.973-1.422h35.982c1.275,0,1.564,0.637,0.645,1.422l-9.898,8.46
						C257.523,387.639,255.744,388.276,254.469,388.276z"/>
				</g>
				<path style="fill:#2C2E5C;" d="M343.728,346.143H229.924v-74.169c0-2.35,1.905-4.255,4.255-4.255h105.294
					c2.35,0,4.255,1.905,4.255,4.255V346.143z"/>
				<rect x="233.776" y="273.272" style="fill:#47C2DD;" width="106.1" height="70.318"/>
				<g>
					<defs>
						<rect id="SVGID_1_" x="233.776" y="273.272" width="106.1" height="70.318"/>
					</defs>
					<clipPath id="SVGID_00000102543181633041340160000002927730569511036328_">
						<use xlink:href="#SVGID_1_"  style="overflow:visible;"/>
					</clipPath>
					<g style="clip-path:url(#SVGID_00000102543181633041340160000002927730569511036328_);">
						<rect x="240.082" y="279.06" style="fill:#E6BF41;" width="81.24" height="62.937"/>
						<polygon style="fill:#C4A12F;" points="321.322,283.867 240.053,282.867 240.053,271.453 321.322,271.453 						"/>
						<polygon style="fill:#C4A12F;" points="321.32,340.267 240.051,339.267 240.051,327.853 321.32,327.853 						"/>
						<rect x="249.901" y="296.499" style="fill:#2C2E5C;" width="23.28" height="45.498"/>
						<rect x="283.208" y="285.976" style="fill:#FFFFFF;" width="31.308" height="37.438"/>
						<polygon style="fill:#C44848;" points="233.319,281.442 243.183,264.986 321.837,264.986 321.837,282.204 						"/>
						<g>
							<g>
								<polygon style="fill:#EA7C7C;" points="280.063,302.507 243.093,302.507 249.227,290.975 273.948,290.975 								"/>
								<g>
									<path style="fill:#DDDDDD;" d="M247.714,302.507c0,1.687-1.035,3.055-2.311,3.055c-1.276,0-2.311-1.368-2.311-3.055"/>
									<path style="fill:#EA7C7C;" d="M252.335,302.507c0,1.687-1.035,3.055-2.311,3.055c-1.276,0-2.311-1.368-2.311-3.055"/>
									<path style="fill:#DDDDDD;" d="M256.957,302.507c0,1.687-1.035,3.055-2.311,3.055c-1.276,0-2.311-1.368-2.311-3.055"/>
									<path style="fill:#EA7C7C;" d="M261.578,302.507c0,1.687-1.035,3.055-2.311,3.055c-1.276,0-2.311-1.368-2.311-3.055"/>
									<path style="fill:#DDDDDD;" d="M266.199,302.507c0,1.687-1.034,3.055-2.311,3.055c-1.276,0-2.311-1.368-2.311-3.055"/>
									<path style="fill:#EA7C7C;" d="M270.82,302.507c0,1.687-1.034,3.055-2.311,3.055c-1.276,0-2.311-1.368-2.311-3.055"/>
									<path style="fill:#DDDDDD;" d="M275.442,302.507c0,1.687-1.035,3.055-2.311,3.055c-1.276,0-2.311-1.368-2.311-3.055"/>
									<path style="fill:#EA7C7C;" d="M280.063,302.507c0,1.687-1.035,3.055-2.311,3.055c-1.276,0-2.311-1.368-2.311-3.055"/>
								</g>
								<g>
									<polyline style="fill:#DDDDDD;" points="252.317,290.975 247.682,302.582 243.046,302.582 249.227,290.975 									"/>
									<polyline style="fill:#DDDDDD;" points="255.407,290.975 252.317,302.582 256.952,302.582 258.497,290.975 									"/>
									<polyline style="fill:#DDDDDD;" points="261.587,290.975 261.587,302.582 266.223,302.582 264.678,290.975 									"/>
									<polyline style="fill:#DDDDDD;" points="267.768,290.975 270.858,302.582 275.493,302.582 270.858,290.975 									"/>
								</g>
							</g>
							<g>
								<defs>
									<path id="SVGID_00000163050885892231957870000009835244262093838502_" d="M280.129,289.034h-3.09h-3.09h-3.09h-3.09h-3.09
										h-3.09h-3.09h-3.09h-3.09h-3.09h-3.09h-3.09l-9.271,13.152h0.077c0.03,1.872,1.051,3.376,2.308,3.376
										c1.276,0,2.311-1.55,2.311-3.461c0,1.911,1.035,3.461,2.311,3.461c1.257,0,2.277-1.504,2.308-3.376h0.006
										c0.031,1.872,1.051,3.376,2.308,3.376c1.276,0,2.311-1.55,2.311-3.461c0,1.911,1.035,3.461,2.311,3.461
										c1.257,0,2.277-1.504,2.308-3.376h0.006c0.03,1.872,1.051,3.376,2.308,3.376c1.261,0,2.285-1.515,2.308-3.396l0.003-0.029
										c0.013,1.895,1.041,3.425,2.309,3.425c1.276,0,2.311-1.55,2.311-3.461c0,1.911,1.034,3.461,2.311,3.461
										c1.257,0,2.277-1.504,2.308-3.376h0.006c0.03,1.872,1.051,3.376,2.308,3.376c1.276,0,2.311-1.55,2.311-3.461
										c0,1.911,1.035,3.461,2.311,3.461c1.257,0,2.277-1.504,2.308-3.376h0.006c0.03,1.872,1.051,3.376,2.308,3.376
										c1.276,0,2.311-1.55,2.311-3.461c0,1.911,1.034,3.461,2.311,3.461c1.257,0,2.277-1.504,2.308-3.376h0.006
										c0.03,1.872,1.051,3.376,2.308,3.376c1.276,0,2.311-1.55,2.311-3.461L280.129,289.034z M252.335,302.108
										c0-0.003,0-0.005,0-0.007c0,0.002,0,0.004,0,0.005L252.335,302.108z"/>
								</defs>
								<clipPath id="SVGID_00000013912712042714905780000002729697508073319826_">
									<use xlink:href="#SVGID_00000163050885892231957870000009835244262093838502_"  style="overflow:visible;"/>
								</clipPath>
							</g>
							<g>
								<defs>
									<path id="SVGID_00000018923498143491567430000001270991751608902073_" d="M273.948,290.974h-3.09h-3.09h-3.09h-3.09h-3.09
										h-3.09h-3.09h-3.09l-6.18,11.608h0.052c0.031,1.651,1.048,2.98,2.305,2.98c1.276,0,2.311-1.368,2.311-3.055
										c0,1.687,1.035,3.055,2.311,3.055c1.257,0,2.274-1.328,2.305-2.98h0.011c0.031,1.651,1.048,2.98,2.305,2.98
										c1.257,0,2.274-1.328,2.305-2.98h0.001l0.006-0.049c0.011,1.675,1.039,3.029,2.309,3.029c1.276,0,2.311-1.368,2.311-3.055
										c0,1.687,1.035,3.055,2.311,3.055c1.257,0,2.274-1.328,2.305-2.98h0.011c0.031,1.651,1.048,2.98,2.305,2.98
										c1.276,0,2.311-1.368,2.311-3.055c0,1.687,1.035,3.055,2.311,3.055c1.257,0,2.274-1.328,2.305-2.98h0.011
										c0.031,1.651,1.048,2.98,2.305,2.98c1.276,0,2.311-1.368,2.311-3.055L273.948,290.974z M252.335,302.515
										c0-0.003,0.001-0.005,0.001-0.008c0,0.002,0,0.003,0,0.004L252.335,302.515z"/>
								</defs>
								<clipPath id="SVGID_00000160873125949261359960000005342274561741390014_">
									<use xlink:href="#SVGID_00000018923498143491567430000001270991751608902073_"  style="overflow:visible;"/>
								</clipPath>
								
									<rect x="242.05" y="302.582" style="opacity:0.17;clip-path:url(#SVGID_00000160873125949261359960000005342274561741390014_);fill:#2C2E5C;" width="39.121" height="7.471"/>
							</g>
						</g>
						<rect x="298.431" y="285.976" style="fill:#222221;" width="0.781" height="37.438"/>
						<rect x="321.322" y="277.867" style="fill:#EA7C7C;" width="39.98" height="61.292"/>
						<rect x="282.875" y="301.123" style="fill:#222221;" width="31.775" height="0.715"/>
						<polyline style="fill:none;stroke:#222221;stroke-width:0.5;stroke-miterlimit:10;" points="288.818,305.507 298.525,298.52 
							308.03,305.507 						"/>
						<rect x="286.864" y="304.695" style="fill:#47C2DD;" width="23.121" height="8.29"/>
						<g>
							<path style="fill:#222221;" d="M294.736,308.938c0,1.589-0.966,2.432-2.144,2.432c-1.22,0-2.076-0.945-2.076-2.343
								c0-1.467,0.911-2.426,2.145-2.426C293.921,306.601,294.736,307.568,294.736,308.938z M291.153,309.013
								c0,0.986,0.534,1.87,1.473,1.87c0.945,0,1.48-0.87,1.48-1.918c0-0.918-0.48-1.878-1.473-1.878
								C291.646,307.088,291.153,307.999,291.153,309.013z"/>
							<path style="fill:#222221;" d="M295.51,306.732c0.288-0.049,0.664-0.09,1.145-0.09c0.589,0,1.021,0.138,1.294,0.384
								c0.254,0.22,0.404,0.556,0.404,0.966c0,0.418-0.123,0.747-0.356,0.987c-0.315,0.335-0.829,0.507-1.412,0.507
								c-0.178,0-0.342-0.007-0.479-0.041v1.85h-0.596V306.732z M296.106,308.959c0.13,0.034,0.294,0.048,0.493,0.048
								c0.72,0,1.158-0.35,1.158-0.986c0-0.61-0.432-0.905-1.089-0.905c-0.261,0-0.459,0.022-0.562,0.049V308.959z"/>
							<path style="fill:#222221;" d="M301.546,309.13h-1.795v1.665h2.001v0.5h-2.597v-4.618h2.494v0.501h-1.898v1.459h1.795V309.13
								z"/>
							<path style="fill:#222221;" d="M302.525,311.295v-4.618h0.651l1.48,2.337c0.343,0.541,0.61,1.027,0.829,1.5l0.014-0.007
								c-0.055-0.616-0.068-1.178-0.068-1.897v-1.933h0.561v4.618h-0.603l-1.466-2.343c-0.322-0.515-0.63-1.042-0.863-1.542
								l-0.021,0.007c0.034,0.582,0.048,1.138,0.048,1.905v1.973H302.525z"/>
						</g>
						<polyline style="fill:#EA7C7C;" points="361.68,282.422 321.61,282.422 321.61,265.167 355.178,264.986 361.68,273.204 						
							"/>
						<path style="fill:#C44848;" d="M351.862,338.74h-24.279v-30.152c0-6.704,5.435-12.139,12.139-12.139l0,0
							c6.704,0,12.139,5.435,12.139,12.139V338.74z"/>
					</g>
					
						<rect x="233.776" y="338.842" style="clip-path:url(#SVGID_00000102543181633041340160000002927730569511036328_);fill:#FFFFFF;" width="106.1" height="8.748"/>
				</g>
			</g>
			<g>
				<polyline style="fill:none;stroke:#2C2E5C;stroke-width:0.5;stroke-miterlimit:10;" points="239.411,186.017 258.29,204.102 
					277.002,186.017 				"/>
				
					<line style="fill:none;stroke:#2C2E5C;stroke-width:0.5;stroke-miterlimit:10;" x1="283.321" y1="202.779" x2="260.427" y2="202.382"/>
				<polygon style="fill:#2C2E5C;" points="237.887,146.745 238.536,187.768 285.372,187.768 286.02,146.745 				"/>
				<polygon style="fill:#EA7C7C;" points="234.224,146.745 234.872,187.768 281.708,187.768 282.356,146.745 				"/>
				<polyline style="fill:none;stroke:#2C2E5C;stroke-width:0.5;stroke-miterlimit:10;" points="230.878,199.166 256.831,204.102 
					249.376,182.134 				"/>
				
					<line style="fill:none;stroke:#2C2E5C;stroke-width:0.5;stroke-miterlimit:10;" x1="258.29" y1="204.102" x2="271.492" y2="186.017"/>
				
					<rect x="279.374" y="166.805" transform="matrix(0.5121 0.8589 -0.8589 0.5121 305.6058 -163.104)" style="fill:#2C2E5C;" width="33.985" height="41.273"/>
				
					<rect x="277.012" y="162.985" transform="matrix(0.5121 0.8589 -0.8589 0.5121 301.1726 -162.9388)" style="fill:#E6BF41;" width="33.985" height="41.273"/>
				
					<rect x="213.063" y="154.958" transform="matrix(0.7665 -0.6422 0.6422 0.7665 -58.6832 188.6966)" style="fill:#2C2E5C;" width="34.209" height="40.192"/>
				
					<rect x="210.157" y="157.393" transform="matrix(0.7665 -0.6422 0.6422 0.7665 -60.9258 187.3981)" style="fill:#47C2DD;" width="34.21" height="40.192"/>
				<polygon style="fill:#2C2E5C;" points="118.01,335.863 81.845,305.397 99.916,283.232 136.081,313.698 				"/>
				
					<rect x="84.646" y="290.784" transform="matrix(0.7699 0.6381 -0.6381 0.7699 220.3001 1.8273)" style="fill:#C44848;" width="45.94" height="31.296"/>
				<rect x="115.598" y="302.36" style="fill:#2C2E5C;" width="35.89" height="23.493"/>
				<polygon style="fill:#2C2E5C;" points="81.462,302.674 81.845,300.31 81.175,297.702 116.908,294.35 117.038,296.833 				"/>
				
					<rect x="79.42" y="260.214" transform="matrix(0.0934 0.9956 -0.9956 0.0934 365.2149 155.24)" style="fill:#E6BF41;" width="35.89" height="35.89"/>
				<g>
					<path style="fill:#FFFFFF;stroke:#222221;stroke-width:0.5;stroke-miterlimit:10;" d="M152.878,247.654
						c-4.504,3.336-8.83,7.085-11.995,11.757c-3.584,5.29-4.283,10.415-5.027,16.542c-0.023,0.187-0.047,0.38-0.141,0.543
						c-0.143,0.247-0.417,0.381-0.662,0.527c-3.215,1.908-2.73,6.679,1.217,7.062c2.621,0.254,4.197-2.221,4.964-4.477
						c0.668-1.965,0.858-4.058,1.347-6.076c1.856-7.663,8.213-12.483,14.734-16.184c3.572-2.028,7.218-3.919,11.156-5.133
						c4.394-1.354,8.948-2.134,13.293-3.653c1.077-0.376,2.16-0.81,3.025-1.554c4.352-3.74,3.544-11.486-3.119-11.315
						c-6.081,0.156-11.935,2.344-17.387,5.042C160.318,242.698,156.458,245.002,152.878,247.654z"/>
					<path style="fill:#FFFFFF;stroke:#222221;stroke-width:0.5;stroke-miterlimit:10;" d="M242.398,223.643
						c3.183-2.43,6.019-5.362,8.076-8.814c1.516-2.545,2.201-5.398,2.899-8.245c0.62-2.529,0.66-5.285,3.166-6.806
						c1.482-0.9,3.601-0.843,4.791,0.418c0.762,0.807,1.053,1.995,0.881,3.092c-0.172,1.096-0.773,2.098-1.569,2.871
						c-0.513,0.499-1.65,0.838-2.033,1.342c-0.596,0.786-0.144,0.733-0.257,1.698c-0.265,2.256-0.557,4.477-1.087,6.693
						c-1.324,5.54-3.426,10.049-6.903,14.428c-4.835,6.09-11.659,10.12-18.695,13.188c-3.621,1.579-7.697,2.816-11.476,1.667
						c-2.773-0.843-5.794-3.907-5.546-7.026c0.273-3.428,3.533-4.078,6.316-4.784C228.194,231.53,236.117,228.437,242.398,223.643z"
						/>
					<path style="fill:#A8E667;" d="M191.379,290.175c0.036,0.568,0.071,1.137,0.102,1.705c0.09-0.165,0.174-0.332,0.255-0.5
						c0.003-0.292,0.003-0.584,0.001-0.876L191.379,290.175z"/>
					<path style="fill:#FFFFFF;stroke:#222221;stroke-width:0.5;stroke-miterlimit:10;" d="M177.885,312.566
						c0.503-1.997,1.263-3.896,2.371-5.635c1.529-2.399,3.686-4.317,5.727-6.298c2.463-2.39,4.795-4.915,6.982-7.56
						c1.613-1.951,3.17-4.007,4.057-6.378c0.887-2.371,1.035-5.126-0.131-7.374c-1.435-2.766-4.684-4.296-7.799-4.227
						c-11.571,0.253-23.591,17.049-26.801,26.837c-3.486,10.628-1.42,21.993,1.39,32.516c1.281,4.796,3.018,9.064,3.904,13.955
						c0.27,1.491,3.746,15.858,3.22,16.143c-2.125,1.15-3.821,3.071-4.7,5.322c4.676-1.079,9.263-2.54,13.701-4.366
						c0.536-0.22,1.096-0.467,1.437-0.935c0.377-0.517,0.411-1.201,0.419-1.841c0.134-9.806-2.262-19.439-3.442-29.123
						C177.431,327.111,176.193,319.288,177.885,312.566z"/>
					<path style="fill:#222221;" d="M170.749,363.635c-0.036,0.267-0.083,0.485-0.121,0.546c-0.372,0.593-1.511,0.869-2.12,1.158
						c-1.133,0.539-2.294,1.097-3.162,2.003c-0.868,0.906-1.393,2.252-0.99,3.44c0.013,0.037,6.706-2.025,7.215-2.188
						c2.745-0.879,5.567-1.695,8.235-2.793c0.536-0.22,1.096-0.467,1.437-0.935c0.377-0.518,0.411-1.201,0.419-1.841
						c0-1.017,0.141-2.147,0.021-3.126c-3.729,0.531-7.433,1.492-11.081,2.415C170.848,362.253,170.826,363.058,170.749,363.635z"/>
					<path style="fill:#FFFFFF;stroke:#222221;stroke-width:0.5;stroke-miterlimit:10;" d="M271.247,299.224
						c-3.81-3.351-8.082-6.319-12.293-9.048c-3.31,3.296-6.645,6.612-10.506,9.243c-11.857,8.079-29.831,3.666-35.991-9.707
						c3.912-2.983,3.259-9.189,0.86-13.485c-1.869-3.346-4.727-6.35-8.415-7.394c-8.442-2.389-16.001,6.954-16.123,14.687
						c-0.086,5.463,2.304,10.687,5.345,15.227c6.754,10.083,16.655,18.706,29.043,19.286c7.81,0.366,15.759-0.534,23.029-3.409
						c4.941-1.954,10.799-5.889,18.204-14.139c2.421-2.697,5.933,4.836,9.4,1.119C272.979,300.789,272.125,299.996,271.247,299.224z
						"/>
					<path style="fill:#EA7C7C;" d="M159.977,306.308c-3.212,12.311,0.481,40.653,0.481,40.653
						c4.886-0.814,18.364-2.449,24.515-3.371c-4.916-17.721,0.473-39.905,13.832-52.543c0.908-0.859,1.87-1.715,2.411-2.841
						c0.495-1.03,0.594-2.209,0.532-3.35c-0.63-11.616-14.893-15.501-22.62-8.003C170.521,285.208,163.063,294.483,159.977,306.308z
						"/>
					<path style="fill:#EA7C7C;" d="M215.228,270.267c1.933,4.014,0.272,8.741,0.262,13.197c-0.013,5.998,3.308,11.896,8.443,14.996
						c5.135,3.1,11.901,3.29,17.203,0.484c1.754,6.273,3.508,12.546,5.263,18.819c0.182,0.651,0.356,1.383,0.027,1.973
						c-0.339,0.608-1.085,0.839-1.761,1.004c-14.445,3.536-31.538,0.032-43.161-9.422c-3.716-3.023-7.032-6.753-8.606-11.278
						c-1.806-5.192-1.156-10.932,0.262-16.244c1.189-4.456,2.991-8.908,6.278-12.143c3.287-3.235,8.327-5.005,12.657-3.415
						c0.454-0.198,1.399,0.196,1.854-0.002C214.842,269.194,214.659,269.086,215.228,270.267z"/>
					<path style="fill:#2C2E5C;" d="M182.086,278.44c2.045,1.881,11.317,4.649,19.663,6.416c8.347,1.767,13.804,0,13.804,0v-6.416
						H182.086z"/>
					<path style="fill:#47C2DD;" d="M224.205,231.26c-9.158,0.631-18.372-0.567-27.583,0.189c-9.184,0.755-17.68,2.357-26.83,5.243
						c1.257,4.64,2.052,10.351,2.37,15.148c1.861-0.116,3.722-0.232,5.583-0.348c0.17,2.169-2.231,24.319-3.631,27.668
						c1.859,0.165,3.712,0.443,5.553,0.723c0.604,0.092,1.209,0.172,1.815,0.254l17.379,1.214c0.331,0.023,0.661,0.046,0.992,0.069
						c0.054,0.001,0.108,0.003,0.162,0.004c5.833,0.134,11.67,0.033,17.494-0.301c0.987-10.512,0.912-21.058,0.132-31.564
						c0.991-0.459,10.34-2.286,10.123-3.461C226.837,241.095,225.649,236.139,224.205,231.26z"/>
					<path style="fill:#FFFFFF;stroke:#222221;stroke-width:0.5;stroke-miterlimit:10;" d="M204.614,230.877
						c-0.089-0.067-0.172-0.143-0.248-0.228c-1.044-1.167-0.812-4.024-0.766-5.481c0.071-2.219,0.389-4.421,0.641-6.624
						c0.318-2.778,1.5-5.277,0.192-8.037c-0.88-1.857-2.701-3.25-4.732-3.566c-2.031-0.316-4.21,0.473-5.532,2.047
						c-2.204,2.625-3.738,8.351-2.277,11.581c0.547,1.209,1.926,1.898,2.406,3.122c0.702,1.791,0.429,5.88-0.859,7.373
						c-0.647,0.75-1.65,1.179-2.639,1.13c0.81,1.961,2.565,3.4,4.469,4.339c4.851,2.393,9.94-0.548,11.885-5.221
						C206.279,231.375,205.289,231.386,204.614,230.877z"/>
					<path style="fill:#2C2E5C;" d="M192.653,216.625c-0.303,0.952,0.289,2.093,1.241,2.393c0.952,0.3,2.092-0.296,2.389-1.249
						L192.653,216.625z"/>
					<path style="fill:#C44848;" d="M209.672,216.846c0.854-0.95,1.427-2.271,0.855-3.374c-0.182-0.35-0.468-0.65-0.576-1.029
						c-0.144-0.508,0.061-1.04,0.178-1.555c0.333-1.47-0.742-3.489-2.287-3.739c-0.599-0.097-1.28-0.012-1.745-0.4
						c-0.466-0.389-0.503-1.074-0.674-1.656c-0.313-1.07-1.22-1.945-2.301-2.219c-1.081-0.274-2.295,0.062-3.081,0.853
						c-0.273,0.275-0.504,0.605-0.843,0.792c-0.862,0.474-1.876-0.17-2.811-0.477c-1.966-0.644-4.382,0.56-4.921,2.557
						c-0.538,1.997,1.089,4.322,3.157,4.372c0.737,0.018,1.476-0.214,2.204-0.098c1.98,0.316,0.727,3.263,3.006,3.561
						c0.884,0.116,1.519-0.296,2.337,0.206c1.558,0.955,0.932,4.424,0.981,5.967c0.021,0.652,0.116,1.428,0.697,1.724
						c0.551,0.28,1.239-0.07,1.611-0.564c0.371-0.495,0.54-1.11,0.841-1.65c0.686-1.229,1.984-1.96,3.019-2.914
						C209.441,217.092,209.559,216.972,209.672,216.846z"/>
					<path style="fill:#FFFFFF;" d="M204.697,219.32c-0.654,2.306-3.85,1.475-3.279-0.888
						C201.99,216.063,205.363,216.976,204.697,219.32z"/>
					<path style="fill:#222221;" d="M258.95,296.696c1.579,1.534,3.337,2.852,5.076,4.199c0.126-0.139,0.249-0.269,0.376-0.41
						c2.421-2.697,5.933,4.836,9.4,1.119c-0.823-0.815-1.676-1.607-2.554-2.379c-3.81-3.351-8.082-6.319-12.293-9.048
						c-1.133,1.128-2.27,2.256-3.429,3.36C256.731,294.513,257.835,295.613,258.95,296.696z"/>
				</g>
				<path style="fill:none;stroke:#222221;stroke-width:0.5;stroke-miterlimit:10;" d="M191.014,287.917
					c-0.194,3.749,0.408,7.537,1.755,11.041"/>
				<path style="fill:none;stroke:#222221;stroke-width:0.5;stroke-miterlimit:10;" d="M177.047,251.862
					c0.822-0.419,1.887-0.304,2.6,0.282"/>
				<path style="fill:none;stroke:#222221;stroke-width:0.5;stroke-miterlimit:10;" d="M217.592,249.398
					c-0.619,0.609-1.139,1.317-1.534,2.089"/>
				<path style="fill:none;stroke:#222221;stroke-width:0.5;stroke-miterlimit:10;" d="M195.85,223.348
					c0.733,0.175,1.495,0.23,2.246,0.161"/>
				<path style="fill:none;stroke:#222221;stroke-width:0.5;stroke-miterlimit:10;" d="M203.271,218.508
					c0.058,0.351-0.001,0.721-0.166,1.036"/>
			</g>
			<g style="opacity:0.31;">
				<g>
					<path style="fill:#C44848;" d="M122.498,308.875c0,1.52-1.232,2.752-2.752,2.752c-1.52,0-2.752-1.232-2.752-2.752
						c0-1.52,1.232-2.752,2.752-2.752C121.266,306.123,122.498,307.355,122.498,308.875z"/>
					<path style="fill:#C44848;" d="M128.002,308.875c0,1.52-1.232,2.752-2.752,2.752c-1.52,0-2.752-1.232-2.752-2.752
						c0-1.52,1.232-2.752,2.752-2.752C126.77,306.123,128.002,307.355,128.002,308.875z"/>
					<path style="fill:#C44848;" d="M133.506,308.875c0,1.52-1.232,2.752-2.752,2.752c-1.52,0-2.752-1.232-2.752-2.752
						c0-1.52,1.232-2.752,2.752-2.752C132.274,306.123,133.506,307.355,133.506,308.875z"/>
					<path style="fill:#C44848;" d="M139.01,308.875c0,1.52-1.232,2.752-2.752,2.752c-1.52,0-2.752-1.232-2.752-2.752
						c0-1.52,1.232-2.752,2.752-2.752C137.778,306.123,139.01,307.355,139.01,308.875z"/>
					<path style="fill:#C44848;" d="M144.515,308.875c0,1.52-1.232,2.752-2.752,2.752c-1.52,0-2.752-1.232-2.752-2.752
						c0-1.52,1.232-2.752,2.752-2.752C143.283,306.123,144.515,307.355,144.515,308.875z"/>
					<circle style="fill:#C44848;" cx="147.267" cy="308.875" r="2.752"/>
				</g>
				<g>
					<path style="fill:#C44848;" d="M122.498,314.301c0,1.52-1.232,2.752-2.752,2.752c-1.52,0-2.752-1.232-2.752-2.752
						c0-1.52,1.232-2.752,2.752-2.752C121.266,311.549,122.498,312.781,122.498,314.301z"/>
					<path style="fill:#C44848;" d="M128.002,314.301c0,1.52-1.232,2.752-2.752,2.752c-1.52,0-2.752-1.232-2.752-2.752
						c0-1.52,1.232-2.752,2.752-2.752C126.77,311.549,128.002,312.781,128.002,314.301z"/>
					<path style="fill:#C44848;" d="M133.506,314.301c0,1.52-1.232,2.752-2.752,2.752c-1.52,0-2.752-1.232-2.752-2.752
						c0-1.52,1.232-2.752,2.752-2.752C132.274,311.549,133.506,312.781,133.506,314.301z"/>
					<path style="fill:#C44848;" d="M139.01,314.301c0,1.52-1.232,2.752-2.752,2.752c-1.52,0-2.752-1.232-2.752-2.752
						c0-1.52,1.232-2.752,2.752-2.752C137.778,311.549,139.01,312.781,139.01,314.301z"/>
					<path style="fill:#C44848;" d="M144.515,314.301c0,1.52-1.232,2.752-2.752,2.752c-1.52,0-2.752-1.232-2.752-2.752
						c0-1.52,1.232-2.752,2.752-2.752C143.283,311.549,144.515,312.781,144.515,314.301z"/>
					<path style="fill:#C44848;" d="M150.019,314.301c0,1.52-1.232,2.752-2.752,2.752c-1.52,0-2.752-1.232-2.752-2.752
						c0-1.52,1.232-2.752,2.752-2.752C148.787,311.549,150.019,312.781,150.019,314.301z"/>
				</g>
				<g>
					<path style="fill:#C44848;" d="M122.498,319.728c0,1.52-1.232,2.752-2.752,2.752c-1.52,0-2.752-1.232-2.752-2.752
						c0-1.52,1.232-2.752,2.752-2.752C121.266,316.975,122.498,318.208,122.498,319.728z"/>
					<path style="fill:#C44848;" d="M128.002,319.728c0,1.52-1.232,2.752-2.752,2.752c-1.52,0-2.752-1.232-2.752-2.752
						c0-1.52,1.232-2.752,2.752-2.752C126.77,316.975,128.002,318.208,128.002,319.728z"/>
					<path style="fill:#C44848;" d="M133.506,319.728c0,1.52-1.232,2.752-2.752,2.752c-1.52,0-2.752-1.232-2.752-2.752
						c0-1.52,1.232-2.752,2.752-2.752C132.274,316.975,133.506,318.208,133.506,319.728z"/>
					<path style="fill:#C44848;" d="M139.01,319.728c0,1.52-1.232,2.752-2.752,2.752c-1.52,0-2.752-1.232-2.752-2.752
						c0-1.52,1.232-2.752,2.752-2.752C137.778,316.975,139.01,318.208,139.01,319.728z"/>
					<path style="fill:#C44848;" d="M144.515,319.728c0,1.52-1.232,2.752-2.752,2.752c-1.52,0-2.752-1.232-2.752-2.752
						c0-1.52,1.232-2.752,2.752-2.752C143.283,316.975,144.515,318.208,144.515,319.728z"/>
					<path style="fill:#C44848;" d="M150.019,319.728c0,1.52-1.232,2.752-2.752,2.752c-1.52,0-2.752-1.232-2.752-2.752
						c0-1.52,1.232-2.752,2.752-2.752C148.787,316.975,150.019,318.208,150.019,319.728z"/>
				</g>
			</g>
			<g>
				<path style="fill:#C4A12F;" d="M279.643,183.774L279.643,183.774c-0.677-1.239-2.23-1.695-3.469-1.018v0
					c1.239-0.677,1.695-2.23,1.018-3.469h0c0.677,1.239,2.23,1.695,3.469,1.018l0,0
					C281.338,181.544,280.882,183.097,279.643,183.774z"/>
				<path style="fill:#C4A12F;" d="M284.13,181.322L284.13,181.322c-0.677-1.239-2.23-1.695-3.469-1.018l0,0
					c1.239-0.677,1.695-2.23,1.018-3.469h0c0.677,1.239,2.23,1.695,3.469,1.018l0,0C285.825,179.092,285.369,180.645,284.13,181.322
					z"/>
				<path style="fill:#C4A12F;" d="M288.617,178.87L288.617,178.87c-0.677-1.239-2.23-1.695-3.469-1.018l0,0
					c1.239-0.677,1.695-2.23,1.018-3.469l0,0c0.677,1.239,2.23,1.695,3.469,1.018l0,0
					C290.312,176.64,289.857,178.193,288.617,178.87z"/>
				<path style="fill:#C4A12F;" d="M293.104,176.419L293.104,176.419c-0.677-1.239-2.23-1.695-3.469-1.018v0
					c1.239-0.677,1.695-2.23,1.018-3.469l0,0c0.677,1.239,2.23,1.695,3.469,1.018l0,0
					C294.799,174.188,294.344,175.742,293.104,176.419z"/>
				<path style="fill:#C4A12F;" d="M297.592,173.967L297.592,173.967c-0.677-1.239-2.23-1.695-3.469-1.018v0
					c1.239-0.677,1.695-2.23,1.018-3.469h0c0.677,1.239,2.23,1.695,3.469,1.018v0C299.286,171.736,298.831,173.29,297.592,173.967z"
					/>
				<path style="fill:#C4A12F;" d="M302.079,171.515L302.079,171.515c-0.677-1.239-2.23-1.695-3.469-1.018l0,0
					c1.239-0.677,1.695-2.23,1.018-3.469l0,0c0.677,1.239,2.23,1.695,3.469,1.018l0,0
					C303.774,169.285,303.318,170.838,302.079,171.515z"/>
				<path style="fill:#C4A12F;" d="M282.095,188.261L282.095,188.261c-0.677-1.239-2.23-1.695-3.469-1.018v0
					c1.239-0.677,1.695-2.23,1.018-3.469l0,0c0.677,1.239,2.23,1.695,3.469,1.018l0,0
					C283.79,186.031,283.334,187.584,282.095,188.261z"/>
				<path style="fill:#C4A12F;" d="M286.582,185.809L286.582,185.809c-0.677-1.239-2.23-1.695-3.469-1.018l0,0
					c1.239-0.677,1.695-2.23,1.018-3.469h0c0.677,1.239,2.23,1.695,3.469,1.018l0,0
					C288.277,183.579,287.821,185.132,286.582,185.809z"/>
				<path style="fill:#C4A12F;" d="M291.069,183.357L291.069,183.357c-0.677-1.239-2.23-1.695-3.469-1.018v0
					c1.239-0.677,1.695-2.23,1.018-3.469h0c0.677,1.239,2.23,1.695,3.469,1.018l0,0C292.764,181.127,292.308,182.68,291.069,183.357
					z"/>
				<path style="fill:#C4A12F;" d="M295.556,180.906L295.556,180.906c-0.677-1.239-2.23-1.695-3.469-1.018v0
					c1.239-0.677,1.695-2.23,1.018-3.469l0,0c0.677,1.239,2.23,1.695,3.469,1.018l0,0
					C297.251,178.675,296.795,180.229,295.556,180.906z"/>
				<path style="fill:#C4A12F;" d="M300.043,178.454L300.043,178.454c-0.677-1.239-2.23-1.695-3.469-1.018l0,0
					c1.239-0.677,1.695-2.23,1.018-3.469l0,0c0.677,1.239,2.23,1.695,3.469,1.018l0,0
					C301.738,176.223,301.283,177.777,300.043,178.454z"/>
				<path style="fill:#C4A12F;" d="M304.531,176.002L304.531,176.002c-0.677-1.239-2.23-1.695-3.469-1.018l0,0
					c1.239-0.677,1.695-2.23,1.018-3.469h0c0.677,1.239,2.23,1.695,3.469,1.018l0,0C306.225,173.772,305.77,175.325,304.531,176.002
					z"/>
				<path style="fill:#C4A12F;" d="M284.547,192.748L284.547,192.748c-0.677-1.239-2.23-1.695-3.469-1.018l0,0
					c1.239-0.677,1.695-2.23,1.018-3.469l0,0c0.677,1.239,2.23,1.695,3.469,1.018l0,0
					C286.241,190.518,285.786,192.071,284.547,192.748z"/>
				<path style="fill:#C4A12F;" d="M289.034,190.296L289.034,190.296c-0.677-1.239-2.23-1.695-3.47-1.018v0
					c1.239-0.677,1.695-2.23,1.018-3.469l0,0c0.677,1.239,2.23,1.695,3.469,1.018l0,0
					C290.728,188.066,290.273,189.619,289.034,190.296z"/>
				<path style="fill:#C4A12F;" d="M293.521,187.845L293.521,187.845c-0.677-1.239-2.23-1.695-3.469-1.018v0
					c1.239-0.677,1.695-2.23,1.018-3.469h0c0.677,1.239,2.23,1.695,3.469,1.018l0,0C295.216,185.614,294.76,187.168,293.521,187.845
					z"/>
				<path style="fill:#C4A12F;" d="M298.008,185.393L298.008,185.393c-0.677-1.239-2.23-1.695-3.469-1.018l0,0
					c1.239-0.677,1.695-2.23,1.018-3.469h0c0.677,1.239,2.23,1.695,3.469,1.018l0,0
					C299.703,183.163,299.247,184.716,298.008,185.393z"/>
				<path style="fill:#C4A12F;" d="M302.495,182.941L302.495,182.941c-0.677-1.239-2.23-1.695-3.469-1.018l0,0
					c1.239-0.677,1.695-2.23,1.018-3.469l0,0c0.677,1.239,2.23,1.695,3.469,1.018l0,0
					C304.19,180.711,303.734,182.264,302.495,182.941z"/>
				<path style="fill:#C4A12F;" d="M306.982,180.489L306.982,180.489c-0.677-1.239-2.23-1.695-3.469-1.018v0
					c1.239-0.677,1.695-2.23,1.018-3.469l0,0c0.677,1.239,2.23,1.695,3.469,1.018l0,0
					C308.677,178.259,308.222,179.812,306.982,180.489z"/>
				<path style="fill:#C4A12F;" d="M286.998,197.235L286.998,197.235c-0.677-1.239-2.23-1.695-3.469-1.018l0,0
					c1.239-0.677,1.695-2.23,1.018-3.469h0c0.677,1.239,2.23,1.695,3.469,1.018l0,0
					C288.693,195.005,288.237,196.558,286.998,197.235z"/>
				<path style="fill:#C4A12F;" d="M291.486,194.784L291.486,194.784c-0.677-1.239-2.23-1.695-3.469-1.018l0,0
					c1.239-0.677,1.695-2.23,1.018-3.469l0,0c0.677,1.239,2.23,1.695,3.469,1.018l0,0
					C293.18,192.553,292.725,194.107,291.486,194.784z"/>
				<path style="fill:#C4A12F;" d="M295.973,192.332L295.973,192.332c-0.677-1.239-2.23-1.695-3.469-1.018l0,0
					c1.239-0.677,1.695-2.23,1.018-3.469l0,0c0.677,1.239,2.23,1.695,3.469,1.018l0,0
					C297.668,190.101,297.212,191.655,295.973,192.332z"/>
				<path style="fill:#C4A12F;" d="M300.46,189.88L300.46,189.88c-0.677-1.239-2.23-1.695-3.469-1.018l0,0
					c1.239-0.677,1.695-2.23,1.018-3.469h0c0.677,1.239,2.23,1.695,3.469,1.018l0,0C302.155,187.65,301.699,189.203,300.46,189.88z"
					/>
				<path style="fill:#C4A12F;" d="M304.947,187.428L304.947,187.428c-0.677-1.239-2.23-1.695-3.469-1.018v0
					c1.239-0.677,1.695-2.23,1.018-3.469h0c0.677,1.239,2.23,1.695,3.469,1.018h0C306.642,185.198,306.186,186.751,304.947,187.428z
					"/>
				<path style="fill:#C4A12F;" d="M309.434,184.977L309.434,184.977c-0.677-1.239-2.23-1.695-3.469-1.018l0,0
					c1.239-0.677,1.695-2.23,1.018-3.469l0,0c0.677,1.239,2.23,1.695,3.469,1.018l0,0
					C311.129,182.746,310.673,184.299,309.434,184.977z"/>
				<path style="fill:#C4A12F;" d="M289.45,201.723L289.45,201.723c-0.677-1.239-2.23-1.695-3.469-1.018v0
					c1.239-0.677,1.695-2.23,1.018-3.469v0c0.677,1.239,2.23,1.695,3.469,1.018l0,0C291.145,199.492,290.689,201.046,289.45,201.723
					z"/>
				<path style="fill:#C4A12F;" d="M293.937,199.271L293.937,199.271c-0.677-1.239-2.23-1.695-3.469-1.018l0,0
					c1.239-0.677,1.695-2.23,1.018-3.469h0c0.677,1.239,2.23,1.695,3.469,1.018v0C295.632,197.04,295.176,198.594,293.937,199.271z"
					/>
				<path style="fill:#C4A12F;" d="M298.424,196.819L298.424,196.819c-0.677-1.239-2.23-1.695-3.469-1.018l0,0
					c1.239-0.677,1.695-2.23,1.018-3.469l0,0c0.677,1.239,2.23,1.695,3.469,1.018l0,0
					C300.119,194.589,299.664,196.142,298.424,196.819z"/>
				<path style="fill:#C4A12F;" d="M302.912,194.367L302.912,194.367c-0.677-1.239-2.23-1.695-3.469-1.018v0
					c1.239-0.677,1.695-2.23,1.018-3.469l0,0c0.677,1.239,2.23,1.695,3.469,1.018l0,0
					C304.606,192.137,304.151,193.69,302.912,194.367z"/>
				<path style="fill:#C4A12F;" d="M307.399,191.915L307.399,191.915c-0.677-1.239-2.23-1.695-3.469-1.018v0
					c1.239-0.677,1.695-2.23,1.018-3.469l0,0c0.677,1.239,2.23,1.695,3.469,1.018l0,0
					C309.094,189.685,308.638,191.238,307.399,191.915z"/>
				<path style="fill:#C4A12F;" d="M311.886,189.464L311.886,189.464c-0.677-1.239-2.23-1.695-3.469-1.018l0,0
					c1.239-0.677,1.695-2.23,1.018-3.469h0c0.677,1.239,2.23,1.695,3.469,1.018v0C313.581,187.233,313.125,188.787,311.886,189.464z
					"/>
			</g>
			<g>
				<path style="fill:#1AA8C4;" d="M216.506,176.057c0,2.859-2.318,5.177-5.177,5.177c-2.859,0-5.177-2.318-5.177-5.177
					c0-2.859,2.318-5.177,5.177-5.177C214.188,170.88,216.506,173.197,216.506,176.057z"/>
				<path style="fill:#1AA8C4;" d="M224.667,169.585c0,2.859-2.318,5.177-5.177,5.177c-2.859,0-5.177-2.318-5.177-5.177
					c0-2.859,2.318-5.177,5.177-5.177C222.349,164.408,224.667,166.725,224.667,169.585z"/>
				<path style="fill:#1AA8C4;" d="M232.71,163.083c0,2.859-2.318,5.177-5.177,5.177c-2.859,0-5.177-2.318-5.177-5.177
					c0-2.859,2.318-5.177,5.177-5.177C230.392,157.906,232.71,160.223,232.71,163.083z"/>
				<path style="fill:#1AA8C4;" d="M223.878,183.429c0,2.859-2.318,5.177-5.177,5.177c-2.859,0-5.177-2.318-5.177-5.177
					c0-2.859,2.318-5.177,5.177-5.177C221.56,178.252,223.878,180.57,223.878,183.429z"/>
				<path style="fill:#1AA8C4;" d="M232.039,176.957c0,2.859-2.318,5.177-5.177,5.177c-2.859,0-5.177-2.318-5.177-5.177
					c0-2.859,2.318-5.177,5.177-5.177C229.721,171.78,232.039,174.097,232.039,176.957z"/>
				<path style="fill:#1AA8C4;" d="M240.082,170.455c0,2.859-2.318,5.177-5.177,5.177c-2.859,0-5.177-2.318-5.177-5.177
					c0-2.859,2.318-5.177,5.177-5.177C237.764,165.278,240.082,167.596,240.082,170.455z"/>
				<path style="fill:#1AA8C4;" d="M231.25,190.801c0,2.859-2.318,5.177-5.177,5.177s-5.177-2.318-5.177-5.177
					c0-2.859,2.318-5.177,5.177-5.177S231.25,187.942,231.25,190.801z"/>
				<path style="fill:#1AA8C4;" d="M239.411,184.329c0,2.859-2.318,5.177-5.177,5.177c-2.859,0-5.177-2.318-5.177-5.177
					c0-2.859,2.318-5.177,5.177-5.177C237.093,179.152,239.411,181.469,239.411,184.329z"/>
				<path style="fill:#1AA8C4;" d="M247.454,177.827c0,2.859-2.318,5.177-5.177,5.177s-5.177-2.318-5.177-5.177
					c0-2.859,2.318-5.177,5.177-5.177S247.454,174.967,247.454,177.827z"/>
			</g>
			<polygon style="fill:#C4A12F;" points="100.41,267.884 102.933,289.469 108.182,288.603 105.456,267.41 			"/>
		</g>
		<g>
			<g>
				
					<line style="fill:none;stroke:#41458C;stroke-width:0.5;stroke-miterlimit:10;" x1="80.172" y1="433.74" x2="80.172" y2="420.517"/>
				<g>
					<polygon style="fill:#41458C;" points="82.217,432.083 81.851,431.742 80.173,433.548 78.494,431.742 78.128,432.083 
						80.173,434.282 					"/>
				</g>
			</g>
		</g>
	</g>
</g>
</svg>
